# xmcd
#
# Track frame offsets: 
#        150
#        15628
#        32913
#        51001
#        68214
#        83638
#        96386
#        110112
#        128171
#        142796
#        155804
#        170644
#        194919
#        207914
#        220104
#        234038
#        251573
#        272844
#        293084
#        308790
#
# Disc length: 4434 seconds
#
# Revision: 0
# Processed by: cddbd v1.5.2PL0 Copyright (c) Steve Scherf et al.
# Submitted via: ExactAudioCopy v0.99pb3
#
DISCID=28115014
DTITLE=Various Artist - CD Pool - Hits (2009-06)
DYEAR=2009
DGENRE=Pop
TTITLE0=Cascada - Evacuate The Dancefloor
TTITLE1=Florence and The Machine - Rabbit Heart (Raise It Up)
TTITLE2=Jamie T - Sticks 'n' Stones
TTITLE3=Britney Spears - Radar
TTITLE4=Freemasons feat. Sophie Ellis-Bextor - Heartbreak (Make Me A D
TTITLE4=ancer)
TTITLE5=Chipmunk feat. Emeli Sande - Diamond Rings
TTITLE6=Kings Of Leon - Notion
TTITLE7=Jordin Sparks - Battlefield
TTITLE8=MSTRKR feat. John Legend - Heartbreaker
TTITLE9=Metro Station - Seventeen Forever
TTITLE10=JLS - Beat Again
TTITLE11=Green Day - 21 Guns
TTITLE12=MPHO - Box 'n' Locks
TTITLE13=Maccabees - Can You Give It
TTITLE14=Frankmusik - Confusion Girl
TTITLE15=James Morrison - Nothing Ever Hurt Like You
TTITLE16=Bat For Lashes - Pearl's Dream
TTITLE17=Linkin Park - New Divide
TTITLE18=Yeah You's - 15 Minutes
TTITLE19=Michael Jackson - Man In The Mirror
EXTD=
EXTT0=
EXTT1=
EXTT2=
EXTT3=
EXTT4=
EXTT5=
EXTT6=
EXTT7=
EXTT8=
EXTT9=
EXTT10=
EXTT11=
EXTT12=
EXTT13=
EXTT14=
EXTT15=
EXTT16=
EXTT17=
EXTT18=
EXTT19=
PLAYORDER=
